<svg xmlns="http://www.w3.org/2000/svg" viewBox="0 0 378.2 100" fill="currentColor">
  <polygon points="58.8,0 57.7,52 57.4,68.1 43.6,58.8 0,29.4 14.9,21.9 43.6,42.1 43.6,7.6"/>
  <path d="M97.6,3c11.8,0,33.8,1,33.8,31.4c0,30.5-22,31.4-33.8,31.4S63.8,65,63.8,34.5C63.8,4,85.8,3,97.6,3z M97.6,51.1c8,0,13-4.7,13-16.6c0-11.9-5-16.6-13-16.6s-13,4.7-13,16.6C84.6,46.4,89.6,51.1,97.6,51.1z"/>
  <path d="M152.6,47.3l-22-42.2H153l9.4,23.1l9.4-23.1h22.3l-22,42.2v16.5h-19.5V47.3z"/>
  <path d="M206.2,5.1h24l21.1,58.8h-20.8l-2.1-6.8H208l-2.1,6.8h-20.8L206.2,5.1z M218.2,22.9h-0.1l-5.8,19.9h11.8 L218.2,22.9z"/>
  <path d="M284,30.4h32.7v33.5h-8.4l-2.2-5.4c-5.1,5.4-11.4,7.4-22.6,7.4c-13.7,0-32.3-4-32.3-31.2 C251.1,9,268.4,3,283.3,3c21.7,0,32.1,7.1,33.6,22.2h-22c-0.6-3-1.9-4.9-3.8-6c-1.9-1.1-4.1-1.4-6.6-1.4c-8,0-13,4.7-13,16.6 c0,10.9,4.8,16.6,14.5,16.6c6.4,0,9.6-2.9,10.9-7.4H284V30.4z"/>
  <path d="M325.6,5.1h52.6v14.3h-33v7.9h30.7v14.3h-30.7v7.9h33v14.3h-52.6V5.1z"/>
  <path d="M176,91.2h-7.5v8.1h-6.7V79.1h6.7v7h7.5v-7h6.7v20.2H176V91.2z"/>
  <path d="M196.7,78.4c4.1,0,11.6,0.3,11.6,10.8s-7.5,10.8-11.6,10.8s-11.6-0.3-11.6-10.8 C185.1,78.7,192.7,78.4,196.7,78.4z M196.7,94.9c2.8,0,4.5-1.6,4.5-5.7c0-4.1-1.7-5.7-4.5-5.7c-2.8,0-4.5,1.6-4.5,5.7 C192.3,93.3,194,94.9,196.7,94.9z"/>
  <path d="M210.7,79.1h9.4l2.8,11.7h0l2.8-11.7h9.4v20.2h-6.1V84.9h0l-3.6,14.4h-5.1l-3.6-14.4h0v14.4h-6.1V79.1z"/>
  <path d="M238.5,79.1h18.1V84h-11.3v2.7h10.5v4.9h-10.5v2.7h11.3v4.9h-18.1V79.1z"/>
  <path d="M268.5,79.1h6.7v14.8h10.4v5.4h-17.1V79.1z"/>
  <path d="M298.1,78.4c4.1,0,11.6,0.3,11.6,10.8s-7.5,10.8-11.6,10.8c-4.1,0-11.6-0.3-11.6-10.8 C286.5,78.7,294.1,78.4,298.1,78.4z M298.1,94.9c2.8,0,4.5-1.6,4.5-5.7c0-4.1-1.7-5.7-4.5-5.7c-2.8,0-4.5,1.6-4.5,5.7 C293.7,93.3,295.4,94.9,298.1,94.9z"/>
  <path d="M316.9,79.1h8.2l7.2,20.2h-7.1l-0.7-2.3h-7l-0.7,2.3h-7.1L316.9,79.1z M321.1,85.2L321.1,85.2l-2,6.8h4 L321.1,85.2z"/>
  <path d="M333.2,79.1h7.7l6.8,11.2h0.1V79.1h6.4v20.2h-7.4L339.7,88h0v11.3h-6.4V79.1z"/>
  <path d="M361.3,90.7c-3.3-0.6-4.6-2.9-4.6-5.7c0-5.2,4.3-6.6,9.8-6.6c7.6,0,10.7,2.3,10.9,6.6h-7.8 c0-0.8-0.4-1.3-1-1.6c-0.6-0.3-1.4-0.4-2.1-0.4c-2,0-2.7,0.6-2.7,1.4c0,0.6,0.2,0.9,0.9,1l8,1.4c3.4,0.6,5.5,2.5,5.5,5.9 c0,4.9-3.4,7.2-10.9,7.2c-5.1,0-10.8-0.8-10.8-6.8h8.1c0,0.7,0.3,1.1,0.7,1.4c0.5,0.3,1.3,0.4,2.3,0.4c2.1,0,2.7-0.7,2.7-1.6 c0-0.6-0.3-1.2-1.2-1.4L361.3,90.7z"/>
</svg>